<?xml version="1.0" standalone="no"?><!DOCTYPE svg PUBLIC "-//W3C//DTD SVG 1.1//EN" "http://www.w3.org/Graphics/SVG/1.1/DTD/svg11.dtd"><svg t="1751696340122" class="icon" viewBox="0 0 1024 1024" version="1.1" xmlns="http://www.w3.org/2000/svg" p-id="20562" xmlns:xlink="http://www.w3.org/1999/xlink" width="16" height="16"><path d="M913.7 306.7L511.5 182.5c-17.5-5.2-35.9 3.3-42 20.3L323.5 589c-23.9-29.1-60-47.9-100.8-48.7-74.1-1.4-135 57.1-136.4 131.2v5.2c1.4 74.1 62.8 132.6 136.4 131.2 54.8-1.1 101.6-35.2 121.3-83.2l0.5 0.2 134-354.4c6.6-17 25-26 42.5-20.3L790 438c0.5 0 1.4 0 1.9 0.5 17.5 6.6 26 26.4 19.3 43.9L709.8 741.3c-24.5-30.2-61.8-49.4-103.9-49.1-73.6 0-133.6 59.9-133.6 134s59.9 134 134 133.6c59.6 0 110-38.8 127.2-92.5l201.7-515.9c0.5-0.9 0.5-1.4 0.9-2.4 5.4-17.8-4.5-36.7-22.4-42.3z" p-id="20563" fill="#b5b9ba"></path><path d="M301.1 111.9l-13.7-29.7C280.8 68 264.7 61 250.1 65.7l-111.9 34c-0.5 0.5-1.4 0.5-2.4 0.9-16.5 6.6-24.5 25.5-17.9 42l72.6 182.2h-0.9c-48.6 0-87.8 39.2-87.8 87.8 0 48.6 39.2 87.8 87.8 87.8 48.6 0 87.8-39.2 87.8-87.8 0-16.9-4.8-32.7-13-46.1l-66.3-169.1c-0.5-0.5-0.5-0.5-0.5-0.9-1.9-7.1 1.4-14.2 8.5-16.5l76.5-25.5c0.9-0.5 2.4-0.9 3.3-1.4 15.6-7.3 22.2-25.7 15.2-41.2z" p-id="20564" fill="#b5b9ba"></path></svg>