<?xml version="1.0" standalone="no"?><!DOCTYPE svg PUBLIC "-//W3C//DTD SVG 1.1//EN" "http://www.w3.org/Graphics/SVG/1.1/DTD/svg11.dtd"><svg t="1751696245222" class="icon" viewBox="0 0 1024 1024" version="1.1" xmlns="http://www.w3.org/2000/svg" p-id="16336" xmlns:xlink="http://www.w3.org/1999/xlink" width="16" height="16"><path d="M512 1024a512 512 0 1 1 512-512 512 512 0 0 1-512 512z m0-92.8A419.2 419.2 0 1 0 92.8 512 419.84 419.84 0 0 0 512 931.2z m0-93.44A325.76 325.76 0 1 1 837.76 512 325.76 325.76 0 0 1 512 837.76z m0-92.8A232.96 232.96 0 1 0 279.04 512 232.96 232.96 0 0 0 512 744.96z m0-93.44A139.52 139.52 0 1 1 651.52 512 140.16 140.16 0 0 1 512 651.52z m0-92.8A46.72 46.72 0 1 0 465.28 512a46.72 46.72 0 0 0 46.72 46.72z" p-id="16337" fill="#b5b9ba"></path></svg>