<?xml version="1.0" standalone="no"?><!DOCTYPE svg PUBLIC "-//W3C//DTD SVG 1.1//EN" "http://www.w3.org/Graphics/SVG/1.1/DTD/svg11.dtd"><svg t="1751701552996" class="icon" viewBox="0 0 1024 1024" version="1.1" xmlns="http://www.w3.org/2000/svg" p-id="6782" xmlns:xlink="http://www.w3.org/1999/xlink" width="16" height="16"><path d="M510.853694 956.019079c-22.029008 0-44.058016-5.781369-63.595055-17.244427l-269.032999-157.492456c-38.476005-22.527402-62.299231-64.193128-62.299231-108.749538V355.255135c0-44.55641 23.922905-86.222136 62.299231-108.749538l269.032999-157.492456c39.273435-23.025796 88.016354-22.926117 127.289789 0l269.032999 157.492456c38.476005 22.527402 62.299231 64.193128 62.299231 108.749538v317.377202c0 44.55641-23.922905 86.222136-62.299231 108.749538l-269.032999 157.492456c-19.736396 11.463059-41.665726 17.144748-63.694734 17.144748z m0-827.034751c-12.061131 0-24.022583 3.189721-34.78789 9.369804l-269.033 157.492456c-21.03222 12.260489-34.090139 35.086927-34.090139 59.408547v317.377202c0 24.32162 13.057919 47.148058 34.090139 59.408547l269.033 157.492456c21.430935 12.559525 48.144846 12.559525 69.575781 0l269.032999-157.492456c21.03222-12.260489 34.090139-35.086927 34.090139-59.408547V355.255135c0-24.32162-13.057919-47.148058-34.090139-59.408547l-269.032999-157.492456c-10.765307-6.279762-22.726759-9.369804-34.787891-9.369804z" p-id="6783" fill="#ababaf"></path><path d="M510.853694 649.506863c-74.759077 0-135.563127-60.804049-135.563126-135.463448 0-74.759077 60.804049-135.563127 135.563126-135.563127s135.463448 60.804049 135.463448 135.563127c0 74.659398-60.704371 135.463448-135.463448 135.463448z m0-213.91064c-43.260586 0-78.347513 35.186606-78.347513 78.347513 0 43.260586 35.186606 78.347513 78.347513 78.347513 43.260586 0 78.347513-35.186606 78.347513-78.347513S554.11428 435.596223 510.853694 435.596223z" p-id="6784" fill="#ababaf"></path></svg>