<?xml version="1.0" standalone="no"?><!DOCTYPE svg PUBLIC "-//W3C//DTD SVG 1.1//EN" "http://www.w3.org/Graphics/SVG/1.1/DTD/svg11.dtd"><svg t="1752301945551" class="icon" viewBox="0 0 1024 1024" version="1.1" xmlns="http://www.w3.org/2000/svg" p-id="7147" xmlns:xlink="http://www.w3.org/1999/xlink" width="16" height="16"><path d="M321.536 898.56H255.488c-22.016 0-39.424-17.408-39.424-39.424V166.912c0-22.016 17.408-39.424 39.424-39.424h66.048c22.016 0 39.424 17.408 39.424 39.424v692.224c0 21.504-17.408 39.424-39.424 39.424zM768 898.56h-66.048c-22.016 0-39.424-17.408-39.424-39.424V166.912c0-22.016 17.408-39.424 39.424-39.424H768c22.016 0 39.424 17.408 39.424 39.424v692.224c0.512 21.504-17.408 39.424-39.424 39.424z" fill="#d5d5d7" p-id="7148"></path></svg>